<svg id="es2ntn3dniz1" xmlns="http://www.w3.org/2000/svg" xmlns:xlink="http://www.w3.org/1999/xlink" viewBox="0 0 512 512" shape-rendering="geometricPrecision" text-rendering="geometricPrecision"><style><![CDATA[#es2ntn3dniz2_ts {animation: es2ntn3dniz2_ts__ts 3000ms linear 1 normal forwards}@keyframes es2ntn3dniz2_ts__ts { 0% {transform: translate(256px,256px) scale(0,0)} 16.666667% {transform: translate(256px,256px) scale(1,1)} 66.666667% {transform: translate(256px,256px) scale(1,1)} 100% {transform: translate(256px,256px) scale(2,2)} }#es2ntn3dniz3_tr {animation: es2ntn3dniz3_tr__tr 3000ms linear 1 normal forwards}@keyframes es2ntn3dniz3_tr__tr { 0% {transform: translate(282.500046px,256.564911px) rotate(720deg)} 36.666667% {transform: translate(282.500046px,256.564911px) rotate(720deg)} 53.333333% {transform: translate(282.500046px,256.564911px) rotate(360deg)} 100% {transform: translate(282.500046px,256.564911px) rotate(360deg)} }#es2ntn3dniz3 {animation: es2ntn3dniz3_c_o 3000ms linear 1 normal forwards}@keyframes es2ntn3dniz3_c_o { 0% {opacity: 0} 23.333333% {opacity: 1} 33.333333% {opacity: 1} 36.666667% {opacity: 1} 50% {opacity: 1} 66.666667% {opacity: 1} 100% {opacity: 1} }]]></style><defs><linearGradient id="es2ntn3dniz2-fill" x1="0" y1="256" x2="512" y2="256" spreadMethod="pad" gradientUnits="userSpaceOnUse"><stop id="es2ntn3dniz2-fill-0" offset="0%" stop-color="rgb(0,241,255)"/><stop id="es2ntn3dniz2-fill-1" offset="23.100000%" stop-color="rgb(0,216,255)"/><stop id="es2ntn3dniz2-fill-2" offset="51.380000%" stop-color="rgb(0,192,255)"/><stop id="es2ntn3dniz2-fill-3" offset="77.730000%" stop-color="rgb(0,178,255)"/><stop id="es2ntn3dniz2-fill-4" offset="100%" stop-color="rgb(0,173,255)"/></linearGradient></defs><g id="es2ntn3dniz2_ts" transform="translate(256,256) scale(0,0)"><path id="es2ntn3dniz2" d="M512,256C512,397.386719,397.386719,512,256,512C114.613281,512,0,397.386719,0,256C0,114.613281,114.613281,0,256,0C397.386719,0,512,114.613281,512,256ZM512,256" transform="translate(-256,-256)" fill="url(#es2ntn3dniz2-fill)" stroke="none" stroke-width="1"/></g><g id="es2ntn3dniz3_tr" transform="translate(282.500046,256.564911) rotate(720)"><path id="es2ntn3dniz3" d="M178.824219,433.585938C178.753906,433.585938,178.679688,433.585938,178.605469,433.585938C151.488281,433.437500,129.425781,411.046875,129.425781,383.671875L129.425781,128.929688C129.425781,110.820312,138.863281,94.734375,154.675781,85.898438C170.488281,77.066406,189.132812,77.460938,204.558594,86.957031L412.132812,214.910156C426.843750,223.964844,435.609375,239.695312,435.574219,256.980469C435.539062,274.265625,426.710938,289.960938,411.953125,298.960938L261.894531,390.835938C254.832031,395.160156,245.597656,392.941406,241.269531,385.878906C236.945312,378.812500,239.164062,369.578125,246.230469,365.250000L396.308594,273.359375C402.191406,269.773438,405.562500,263.785156,405.574219,256.917969C405.589844,250.054688,402.242188,244.050781,396.398438,240.449219L188.824219,112.496094C182.792969,108.785156,175.496094,108.632812,169.308594,112.089844C163.121094,115.546875,159.425781,121.843750,159.425781,128.929688L159.425781,383.671875C159.425781,395.519531,169.429688,403.535156,178.769531,403.585938C181.730469,403.582031,185.210938,402.464844,188.761719,400.296875C195.835938,395.984375,205.066406,398.218750,209.378906,405.289062C213.695312,412.359375,211.460938,421.593750,204.386719,425.906250C196.152344,430.933594,187.316406,433.585938,178.824219,433.585938ZM178.824219,433.585938" transform="translate(-282.500046,-256.564911)" opacity="0" fill="rgb(255,255,255)" stroke="none" stroke-width="1"/></g></svg>